# xmcd
#
# Track frame offsets:
#	150
#	16834
#	32251
#	46772
#	61000
#	79854
#	96908
#	111656
#	127274
#	139251
#
# Disc length: 2054 seconds
#
# Revision: 0
# Processed by: cddbd v1.5.2PL0 Copyright (c) Steve Scherf et al.
# Submitted via: audiograbber 1.83.01
#
DISCID=8008040a
DTITLE=Holly Auna - Love Shouldn't Be So Hard
DYEAR=2018
DGENRE=Country
TTITLE0=Starling Darling
TTITLE1=Until I Try
TTITLE2=Fix Yourself
TTITLE3=Meet Me at Midnight
TTITLE4=Playing House
TTITLE5=Secrets
TTITLE6=Night Bird
TTITLE7=Home To Me
TTITLE8=Sidelines
TTITLE9=CDX-7063-10-Holly_Auna- - Already_Lost
EXTD=
EXTT0=
EXTT1=
EXTT2=
EXTT3=
EXTT4=
EXTT5=
EXTT6=
EXTT7=
EXTT8=
EXTT9=
PLAYORDER=
